<svg height="512" viewBox="0 0 512 512" width="512" xmlns="http://www.w3.org/2000/svg"><g id="flat"><path d="m56 264h368v208h-368z" fill="#fbd699"/><path d="m451.011 210.069-375.011 2.931-20 3v48h368v208h32v-256z" fill="#eea5a9"/><path d="m56 216 344-176 .948 1.354a304.548 304.548 0 0 1 55.052 174.646z" fill="#ffb1b5"/><path d="m56 312h368v32h-368z" fill="#ffb1b5"/><path d="m320 168h-80l32 48v44a20 20 0 0 0 40 0v40a20 20 0 0 0 40 0v-84z" fill="#f55648"/><path d="m400 160a24.006 24.006 0 0 1 -24 24h-64a23.994 23.994 0 0 1 -1.82-47.92 24 24 0 0 1 15.72-39.98 17.038 17.038 0 0 1 4.93-23.32 46.126 46.126 0 0 0 18.18-23.8l2.99-8.98 12.19 16.26a41.371 41.371 0 0 1 7.04 34.83 17.067 17.067 0 0 1 -3.08 6.33 24.009 24.009 0 0 1 9.67 38.66 23.454 23.454 0 0 1 8.15 2.1 23.978 23.978 0 0 1 14.03 21.82z" fill="#fbedbf"/><path d="m266.644 55.878 7.093 39.367 28.598 14.356 35.806-17.831-21.449-10.767-3.532-28.628-25.067 14.271z" fill="#5e8569"/><path d="m56 392h368v32h-368z" fill="#ffb1b5"/><path d="m200 184a8 8 0 0 1 -5.657-13.657l8-8a8 8 0 0 1 11.314 11.314l-8 8a7.974 7.974 0 0 1 -5.657 2.343z" fill="#ebebeb"/><path d="m176 200a7.974 7.974 0 0 1 -5.657-2.343l-8-8a8 8 0 0 1 11.314-11.314l8 8a8 8 0 0 1 -5.657 13.657z" fill="#f388a2"/><path d="m104 280h16v16h-16z" fill="#dcbb86"/><path d="m176 280h16v16h-16z" fill="#c5a778"/><path d="m136 360h16v16h-16z" fill="#dcbb86"/><path d="m216 360h16v16h-16z" fill="#c5a778"/><path d="m328 360h16v16h-16z" fill="#dcbb86"/><path d="m256 440h16v16h-16z" fill="#dcbb86"/><path d="m352 440h16v16h-16z" fill="#c5a778"/><path d="m88 440h16v16h-16z" fill="#c5a778"/><path d="m152 440h16v16h-16z" fill="#dcbb86"/><path d="m240 280h16v16h-16z" fill="#dcbb86"/><path d="m416 200a8 8 0 0 1 -5.657-13.658l8-8a8 8 0 0 1 11.314 11.315l-8 8a7.979 7.979 0 0 1 -5.657 2.343z" fill="#f388a2"/><path d="m416 136a7.974 7.974 0 0 1 -5.657-2.343l-8-8a8 8 0 0 1 11.314-11.314l8 8a8 8 0 0 1 -5.657 13.657z" fill="#ebebeb"/><path d="m390.25 132.99-.39.5q-1.905 2.385-3.89 4.69a178.838 178.838 0 0 1 -60.38 45.82h-13.59a23.867 23.867 0 0 1 -14.39-4.8 7.973 7.973 0 0 1 3.86-2.79 162.962 162.962 0 0 0 75.89-52.92l.39-.48a8 8 0 1 1 12.5 9.98z" fill="#fbd699"/><path d="m310.181 144.075a8 8 0 0 1 -.023-16 45.716 45.716 0 0 0 35.724-17.234l15.871-19.841a8 8 0 0 1 12.494 10l-15.871 19.839a61.638 61.638 0 0 1 -48.171 23.238z" fill="#fbd699"/><path d="m296.822 165.681-20.64 13.713a27.572 27.572 0 0 1 -27.627 1.675 27.571 27.571 0 0 1 -15.161-23.155l-1.335-24.744a40.5 40.5 0 0 1 18.752-36.385 40.5 40.5 0 0 1 39.858-1.992l1.912.96a40.5 40.5 0 0 1 22.219 33.153 40.5 40.5 0 0 1 -17.978 36.775z" fill="#dc4d41"/><g fill="#b94137"><path d="m279.979 130.2h16v16h-16z" transform="matrix(.449 -.894 .894 .449 35.25 333.544)"/><path d="m251.38 115.844h16.001v15.999h-16.001z" transform="matrix(.449 -.894 .894 .449 32.334 300.096)"/><path d="m254.912 144.471h16v16h-16z" transform="matrix(.449 -.894 .894 .449 8.678 319.009)"/></g></g></svg>